<svg xmlns="http://www.w3.org/2000/svg" viewBox="0 0 30.5 18.26"><defs><style>.cls-1{fill:#161616;}</style></defs><title>Ресурс 4</title><g id="Слой_2" data-name="Слой 2"><g id="Слой_1-2" data-name="Слой 1"><path class="cls-1" d="M3.2,5.37V7.07A.59.59,0,0,1,2,7.07H2V.59H2A.59.59,0,0,1,3.2.59V5.37Zm1.48,1L6.07,8l-1,.66L3.69,7h0a1.42,1.42,0,0,0-.19-.19V5.45a2.61,2.61,0,0,1,1.18.87ZM2.6,10.6a.59.59,0,0,1,.59.59v6.48a.59.59,0,0,1-1.18,0H2V11.19H2a.59.59,0,0,1,.59-.59Zm-.89.87a1.42,1.42,0,0,1-.53-1.11h0a1,1,0,0,1,0-.11V7.91h0a1.42,1.42,0,0,1,.53-1.11V5.45A2.61,2.61,0,0,0,0,7.9v2.46a2.6,2.6,0,0,0,1.72,2.45V11.47Zm1.77,1.34a2.6,2.6,0,0,0,1.72-2.45V9.47H4v.78a1,1,0,0,1,0,.11H4a1.42,1.42,0,0,1-.53,1.11v1.34Z"/><path class="cls-1" d="M9.79,5.2h.33V6.89H9.79V5.2ZM9,6.59h1v.3H9v-.3ZM8.77,5.2H9.1V6.89H8.77V5.2Zm1.32,1.39h.33v.72h-.33V6.59Zm1.54.32a.85.85,0,0,1-.4-.09A.59.59,0,0,1,11,6.57a.88.88,0,0,1-.09-.41V6A1,1,0,0,1,11,5.54a.6.6,0,0,1,.24-.27.75.75,0,0,1,.38-.09.62.62,0,0,1,.36.11.66.66,0,0,1,.23.31,1.3,1.3,0,0,1,.08.48v.11H11.13V5.91H12a.57.57,0,0,0-.11-.32.3.3,0,0,0-.25-.12.36.36,0,0,0-.29.12.53.53,0,0,0-.1.35v.21a.44.44,0,0,0,.11.32.42.42,0,0,0,.31.11.52.52,0,0,0,.2,0A.57.57,0,0,0,12,6.44h0l.22.22h0a.91.91,0,0,1-.28.19.8.8,0,0,1-.31.07ZM14,5.2h.33V6.89H14V5.2Zm-1.07,0h.33V6.89H12.9V5.2Zm.21.71h1v.3h-1v-.3Zm2.18-.53h.33V6.89H15.3V5.38Zm-.49-.18h1.31v.3H14.81V5.2Zm1.93,0h.33V7.58h-.33V5.2Zm.76,1.71a.49.49,0,0,1-.27-.08A.45.45,0,0,1,17,6.62l0-.35a.4.4,0,0,0,0,.19.27.27,0,0,0,.11.12.37.37,0,0,0,.18,0,.33.33,0,0,0,.25-.1.41.41,0,0,0,.09-.28V5.87a.42.42,0,0,0-.09-.29.32.32,0,0,0-.25-.1.39.39,0,0,0-.18,0,.26.26,0,0,0-.11.12.39.39,0,0,0,0,.18l0-.33a.59.59,0,0,1,.2-.23.49.49,0,0,1,.27-.08.56.56,0,0,1,.31.08.51.51,0,0,1,.19.23.94.94,0,0,1,.07.37v.37A.9.9,0,0,1,18,6.6a.5.5,0,0,1-.2.23.59.59,0,0,1-.32.08Z"/><path class="cls-1" d="M9.48,10.1A.84.84,0,0,1,9.09,10a.58.58,0,0,1-.25-.25.84.84,0,0,1-.09-.4V9.09a.83.83,0,0,1,.09-.39.58.58,0,0,1,.25-.25.84.84,0,0,1,.39-.09,1,1,0,0,1,.25,0,.74.74,0,0,1,.21.09.57.57,0,0,1,.15.15h0l-.24.21h0a.49.49,0,0,0-.17-.13.48.48,0,0,0-.2,0,.4.4,0,0,0-.3.11.41.41,0,0,0-.11.3v.28a.43.43,0,0,0,.1.31.39.39,0,0,0,.3.11.45.45,0,0,0,.2,0,.48.48,0,0,0,.17-.13h0l.24.23h0a.6.6,0,0,1-.16.14.75.75,0,0,1-.21.09,1,1,0,0,1-.25,0Zm2.22-1.71H12v1.69h-.33V8.39Zm-1.07,0H11v1.69h-.33V8.39Zm.21,0h1v.31h-1V8.39Zm2.95,1.69V8.88l0,0L13,10.08h-.29V8.39h.33V9.62l0,0,.81-1.18h.28v1.69Zm1.71,0a.84.84,0,0,1-.39-.09.58.58,0,0,1-.25-.25.84.84,0,0,1-.09-.4V9.09a.83.83,0,0,1,.09-.39.58.58,0,0,1,.25-.25.84.84,0,0,1,.39-.09,1,1,0,0,1,.25,0,.74.74,0,0,1,.21.09.57.57,0,0,1,.15.15h0l-.24.21h0a.49.49,0,0,0-.17-.13.48.48,0,0,0-.2,0,.4.4,0,0,0-.3.11.41.41,0,0,0-.11.3v.28a.43.43,0,0,0,.1.31.39.39,0,0,0,.3.11.45.45,0,0,0,.2,0,.49.49,0,0,0,.17-.13h0l.24.23h0A.6.6,0,0,1,16,10a.75.75,0,0,1-.21.09,1,1,0,0,1-.25,0ZM17.61,9a.36.36,0,0,0-.09-.26.33.33,0,0,0-.25-.09.64.64,0,0,0-.2,0,.59.59,0,0,0-.17.09l-.24-.17a.63.63,0,0,1,.25-.18.91.91,0,0,1,.35-.06.8.8,0,0,1,.36.07.51.51,0,0,1,.23.21.69.69,0,0,1,.08.34v1.08h-.32V9ZM17.2,10.1a.71.71,0,0,1-.47-.13.48.48,0,0,1-.15-.39.47.47,0,0,1,.14-.38.63.63,0,0,1,.43-.13h.48l0,.27h-.5a.28.28,0,0,0-.19.06.22.22,0,0,0-.06.18.22.22,0,0,0,.09.19.44.44,0,0,0,.26.06.74.74,0,0,0,.28,0,.13.13,0,0,0,.09-.13l0,.24a.4.4,0,0,1-.11.11.47.47,0,0,1-.15.07l-.19,0Zm2.48-1.71H20v1.69h-.33V8.39Zm-1.07,0h.33v1.69h-.33V8.39Zm.21.71h1v.3h-1V9.1Zm2.95,1V8.88l0,0L21,10.08h-.29V8.39H21V9.62l0,0,.81-1.18h.28v1.69Zm1.54-.59A.66.66,0,0,1,23,9.42a.5.5,0,0,1-.21-.19.55.55,0,0,1-.07-.29h0a.55.55,0,0,1,.07-.29A.5.5,0,0,1,23,8.46a.67.67,0,0,1,.31-.07h.6v.31h-.61a.21.21,0,0,0-.16.06.23.23,0,0,0-.06.17h0a.26.26,0,0,0,0,.12.2.2,0,0,0,.08.08.23.23,0,0,0,.12,0h.61v.32Zm.43.59V8.39h.33v1.69Zm-1,0,.47-.74.33.08-.41.67Z"/><path class="cls-1" d="M8.75,12.78h0a.2.2,0,0,0,.15-.06A.31.31,0,0,0,9,12.55a2,2,0,0,0,0-.31v-.85h.33v1a.7.7,0,0,1-.12.44.41.41,0,0,1-.34.15h0l-.11-.17Zm-.06,0H9v.72H8.69v-.72Zm0,0h1.62v.3H8.69v-.3Zm1.49,0h.33v.72h-.33v-.72Zm-.3-1.39h.33v1.69H9.88V11.39Zm-.64,0H10v.3H9.24v-.3Zm2.44,1.71A.77.77,0,0,1,11.3,13a.57.57,0,0,1-.24-.25.88.88,0,0,1-.08-.4v-.27a.86.86,0,0,1,.08-.39.56.56,0,0,1,.24-.25.87.87,0,0,1,.75,0,.57.57,0,0,1,.24.25.87.87,0,0,1,.08.39v.28a.87.87,0,0,1-.08.39.58.58,0,0,1-.24.25.77.77,0,0,1-.38.09Zm0-.31a.34.34,0,0,0,.27-.11.45.45,0,0,0,.09-.31v-.28a.44.44,0,0,0-.09-.3.39.39,0,0,0-.54,0,.44.44,0,0,0-.09.3v.28a.45.45,0,0,0,.09.31.34.34,0,0,0,.27.11Zm1.15,0a.22.22,0,0,0,.2-.12.65.65,0,0,0,.07-.33v-.93h.33v1a1,1,0,0,1-.07.39.53.53,0,0,1-.2.25.55.55,0,0,1-.31.08h0v-.32ZM14,11.39h.33v1.69H14V11.39Zm-.65,0h.83v.31h-.83v-.31Zm1.68,0h.33v1.69H15V11.39Zm.16,0h.92v.31h-.92v-.31Zm2,1.71a.77.77,0,0,1-.38-.09.57.57,0,0,1-.24-.25.88.88,0,0,1-.08-.4v-.27a.86.86,0,0,1,.08-.39.56.56,0,0,1,.24-.25.87.87,0,0,1,.75,0,.57.57,0,0,1,.24.25.87.87,0,0,1,.08.39v.28a.87.87,0,0,1-.08.39.58.58,0,0,1-.24.25.77.77,0,0,1-.38.09Zm0-.31a.34.34,0,0,0,.27-.11.45.45,0,0,0,.09-.31v-.28a.44.44,0,0,0-.09-.3.39.39,0,0,0-.54,0,.44.44,0,0,0-.09.3v.28a.45.45,0,0,0,.09.31.34.34,0,0,0,.27.11Zm1.54,0h.62a.2.2,0,0,0,.15-.06.21.21,0,0,0,.05-.16h0a.23.23,0,0,0-.05-.16.2.2,0,0,0-.15-.06h-.62V12h.62a.19.19,0,0,0,.13,0,.16.16,0,0,0,0-.12h0a.2.2,0,0,0,0-.14.16.16,0,0,0-.13,0h-.63v-.3h.64a.55.55,0,0,1,.37.11.38.38,0,0,1,.13.31h0a.35.35,0,0,1-.1.25.46.46,0,0,1-.27.13.5.5,0,0,1,.29.15.43.43,0,0,1,.1.3h0a.39.39,0,0,1-.14.32.61.61,0,0,1-.39.11h-.63v-.3Zm-.19-1.39h.33v1.69h-.33V11.39Z"/><path class="cls-1" d="M8.76,15.91h.43v.17H8.76v-.17Zm-.12-.42h.2v1h-.2v-1Zm.85,1a.46.46,0,0,1-.22-.05.34.34,0,0,1-.14-.15.53.53,0,0,1,0-.24v-.16a.52.52,0,0,1,0-.23.34.34,0,0,1,.14-.15.52.52,0,0,1,.45,0,.33.33,0,0,1,.14.15.52.52,0,0,1,0,.23v.17a.52.52,0,0,1,0,.24.34.34,0,0,1-.14.15.46.46,0,0,1-.22.05Zm0-.19a.2.2,0,0,0,.16-.07.27.27,0,0,0,.06-.18v-.17a.26.26,0,0,0-.06-.18.23.23,0,0,0-.32,0,.26.26,0,0,0-.06.18v.17a.27.27,0,0,0,.06.18.2.2,0,0,0,.16.07Zm.8-.84h.2v1.42h-.2V15.49Zm.45,1a.29.29,0,0,1-.16,0,.26.26,0,0,1-.1-.13v-.21a.24.24,0,0,0,0,.11.16.16,0,0,0,.07.07l.11,0a.2.2,0,0,0,.15-.06.24.24,0,0,0,.05-.17v-.22a.25.25,0,0,0-.05-.17.19.19,0,0,0-.15-.06l-.11,0a.16.16,0,0,0-.07.07.23.23,0,0,0,0,.11l0-.19a.35.35,0,0,1,.12-.14.29.29,0,0,1,.16,0,.34.34,0,0,1,.18,0,.31.31,0,0,1,.12.14.57.57,0,0,1,0,.22v.22a.54.54,0,0,1,0,.22.3.3,0,0,1-.12.14.35.35,0,0,1-.19,0Zm1.37,0v-.72l0,0-.49.69h-.17v-1h.2v.73l0,0,.49-.71h.17v1Zm.58-.18h0a.12.12,0,0,0,.09,0,.19.19,0,0,0,0-.1,1.18,1.18,0,0,0,0-.19v-.51h.2v.58a.42.42,0,0,1-.07.27.25.25,0,0,1-.2.09h0l-.07-.1Zm0,0h.2v.43h-.2v-.43Zm0,0h1v.18h-1v-.18Zm.89,0h.2v.43h-.2v-.43Zm-.18-.83h.2v1h-.2v-1Zm-.38,0h.45v.18H13v-.18Zm1.73,1v-.72l0,0-.48.69H14.1v-1h.2v.73l0,0,.49-.71h.17v1Zm1.22-1h.2v1H16v-1Zm-.25.69a.4.4,0,0,1-.2,0,.31.31,0,0,1-.13-.14.49.49,0,0,1,0-.22v-.29h.2v.3a.21.21,0,0,0,0,.15.17.17,0,0,0,.13.05.26.26,0,0,0,.18-.06.2.2,0,0,0,.06-.16v-.1H16v.1a.51.51,0,0,1-.08.31.27.27,0,0,1-.23.11Zm1.28.33a.51.51,0,0,1-.24-.05.35.35,0,0,1-.15-.15.53.53,0,0,1-.05-.24v-.11a.59.59,0,0,1,.05-.26.35.35,0,0,1,.15-.16.45.45,0,0,1,.23-.06.37.37,0,0,1,.22.06.4.4,0,0,1,.14.18.78.78,0,0,1,0,.29v.07h-.68v-.16h.49a.34.34,0,0,0-.06-.19.18.18,0,0,0-.15-.07.21.21,0,0,0-.17.07.32.32,0,0,0-.06.21v.13a.26.26,0,0,0,.07.19.25.25,0,0,0,.19.07l.12,0,.11-.07h0l.13.13h0a.55.55,0,0,1-.17.11.48.48,0,0,1-.19,0Zm1.17,0a.5.5,0,0,1-.24-.05.35.35,0,0,1-.15-.15.51.51,0,0,1-.05-.24v-.17a.5.5,0,0,1,.05-.23.35.35,0,0,1,.15-.15.5.5,0,0,1,.24-.05l.15,0,.13.06a.34.34,0,0,1,.09.09h0l-.14.13h0a.3.3,0,0,0-.1-.07l-.12,0a.24.24,0,0,0-.18.06.25.25,0,0,0-.06.18v.17a.25.25,0,0,0,.06.18.23.23,0,0,0,.18.07l.12,0a.29.29,0,0,0,.1-.08h0l.14.14h0a.36.36,0,0,1-.09.09l-.12.05-.15,0Zm1-.59.27-.43h.24l-.42.6-.09-.17Zm-.3-.43H19v1h-.2v-1Zm.31.58.15-.1.41.53h-.27l-.3-.43Zm-.21-.17h.36v.19h-.36V15.9Zm1.6,0a.21.21,0,0,0-.05-.15.2.2,0,0,0-.15-.06l-.12,0-.1.05-.14-.1a.38.38,0,0,1,.15-.11.55.55,0,0,1,.21,0,.48.48,0,0,1,.21,0,.3.3,0,0,1,.14.13.41.41,0,0,1,0,.2v.65h-.19v-.64Zm-.25.65a.43.43,0,0,1-.28-.08.29.29,0,0,1-.09-.23A.28.28,0,0,1,20,16a.38.38,0,0,1,.26-.07h.29v.16h-.3a.17.17,0,0,0-.12,0,.13.13,0,0,0,0,.11.13.13,0,0,0,.05.11.27.27,0,0,0,.16,0,.45.45,0,0,0,.17,0,.08.08,0,0,0,.06-.08l0,.14-.06.07-.09,0Zm1.15-.37a.4.4,0,0,1-.18,0,.3.3,0,0,1-.12-.11.33.33,0,0,1,0-.17h0a.33.33,0,0,1,0-.17.3.3,0,0,1,.12-.11.4.4,0,0,1,.18,0h.36v.19h-.37a.13.13,0,0,0-.1,0,.14.14,0,0,0,0,.1h0a.16.16,0,0,0,0,.07l0,0,.07,0h.37v.19Zm.26.35v-1h.2v1Zm-.63,0,.28-.44.2,0-.25.4Zm2.52-1h.2v1h-.2v-1Zm-.64,0h.2v1H23v-1Zm.12,0h.62v.19h-.62v-.19Zm1.52,1a.46.46,0,0,1-.22-.05.34.34,0,0,1-.14-.15.53.53,0,0,1,0-.24v-.16a.52.52,0,0,1,0-.23.34.34,0,0,1,.14-.15.52.52,0,0,1,.45,0,.34.34,0,0,1,.14.15.52.52,0,0,1,0,.23v.17a.52.52,0,0,1,0,.24.34.34,0,0,1-.14.15.46.46,0,0,1-.22.05Zm0-.19a.2.2,0,0,0,.16-.07.27.27,0,0,0,.06-.18v-.17a.26.26,0,0,0-.06-.18.23.23,0,0,0-.32,0,.26.26,0,0,0-.06.18v.17a.27.27,0,0,0,.06.18.2.2,0,0,0,.16.07Zm1.58-.84h.18v1h-.18v-.65l-.25.45h-.12l-.25-.45v.65H25.4v-1h.18l.3.56.3-.56Zm1,1a.46.46,0,0,1-.22-.05.34.34,0,0,1-.14-.15.53.53,0,0,1,0-.24v-.16a.52.52,0,0,1,0-.23.34.34,0,0,1,.14-.15.52.52,0,0,1,.45,0,.34.34,0,0,1,.14.15.52.52,0,0,1,0,.23v.17a.52.52,0,0,1,0,.24.34.34,0,0,1-.14.15.46.46,0,0,1-.22.05Zm0-.19a.2.2,0,0,0,.16-.07.27.27,0,0,0,.06-.18v-.17a.26.26,0,0,0-.06-.18.23.23,0,0,0-.32,0,.26.26,0,0,0-.06.18v.17a.27.27,0,0,0,.06.18.2.2,0,0,0,.16.07Zm.93,0h1v.18h-1v-.18Zm.39-.83h.2v1h-.2v-1Zm-.51,0h.2v1H28v-1Zm1.2.83h.2v.43h-.2v-.43ZM29,15.49h.2v1H29v-1Zm.82.82h.36a.13.13,0,0,0,.1,0,.14.14,0,0,0,0-.1h0a.16.16,0,0,0,0-.07l0,0-.07,0H29.8v-.19h.35a.4.4,0,0,1,.18,0,.3.3,0,0,1,.12.11.33.33,0,0,1,0,.17h0a.33.33,0,0,1,0,.17.3.3,0,0,1-.12.11.4.4,0,0,1-.18,0H29.8v-.19Zm-.1-.82h.2v1h-.2v-1Z"/></g></g></svg>