<?xml version="1.0" encoding="UTF-8"?> <svg xmlns="http://www.w3.org/2000/svg" id="Layer_1" data-name="Layer 1" viewBox="0 0 512 512" width="512px" height="512px"> <g> <title class="active-path">Service Lift</title> <path d="M466,229H46a7.2,7.2,0,0,0-7,7.231v25a7.651,7.651,0,0,0,4,6.5v0l193.641,77L43,421.727v0a7.651,7.651,0,0,0-4,6.5v46A6.806,6.806,0,0,0,46,481H466a6.806,6.806,0,0,0,7-6.769v-46a7.651,7.651,0,0,0-4-6.5v0l-193.641-77L469,267.736v0a7.651,7.651,0,0,0,4-6.5v-25A7.2,7.2,0,0,0,466,229Zm-7,238H53V435H459Zm-29.551-46H82.551L256,352.033ZM256,336.967,82.551,268h346.9ZM459,254H53V243H459Z" data-original="#000000" class="active-path" fill="#0758B3"></path> <path d="M100.459,185a40.328,40.328,0,0,0,79.833,0H335.86a40.318,40.318,0,0,0,80.171-2h.554a41.587,41.587,0,0,0,24.455-7.768l.113-.1A53,53,0,0,0,463,132.319V95.435a23.639,23.639,0,0,0-8.265-17.969L406.9,36.583A23.57,23.57,0,0,0,391.5,31H270.126c-1.358,0-2.723-.084-4.089-.046a5.436,5.436,0,0,0-2.421,0,163.4,163.4,0,0,0-34.387,5.281,193.09,193.09,0,0,0-25.278,8.607,242.259,242.259,0,0,0-68.746,44.277A191.171,191.171,0,0,0,75.274,99.84,39.488,39.488,0,0,0,49,137.117v37.436A10.482,10.482,0,0,0,59.6,185ZM375.83,206.147a26.334,26.334,0,1,1,26.333-26.334A26.363,26.363,0,0,1,375.83,206.147ZM364,45h27.5a9.563,9.563,0,0,1,6.291,2.211l47.833,40.943a8.591,8.591,0,0,1,1.488,1.83L364,89.725Zm-92,0h78V89.686l-78-.217Zm0,58.469,177,.491V117H435.727a7,7,0,0,0,0,14H449v1.319a38.927,38.927,0,0,1-16.06,31.453l-.1.11A27.647,27.647,0,0,1,416.585,169h-1.929a40.321,40.321,0,0,0-78.212,2H272ZM140.376,205.729A26.334,26.334,0,1,1,166.709,179.4,26.362,26.362,0,0,1,140.376,205.729ZM209.352,57.755a178.54,178.54,0,0,1,23.388-7.991A157.764,157.764,0,0,1,258,45.322V89.43l-101.3-.281A229.978,229.978,0,0,1,209.352,57.755ZM63,137.117a25.544,25.544,0,0,1,4.657-14.755,25.16,25.16,0,0,1,12.273-9.321A176.539,176.539,0,0,1,138,103.1l120,.333V171H179.857a40.334,40.334,0,0,0-78.963,0H63Z" data-original="#000000" class="active-path" fill="#0758B3"></path> <path d="M217.3,123h20.6a7,7,0,0,0,0-14H217.3a7,7,0,0,0,0,14Z" data-original="#000000" class="active-path" fill="#0758B3"></path> </g> </svg> 