<?xml version="1.0" encoding="UTF-8"?> <!-- Generator: Adobe Illustrator 22.0.1, SVG Export Plug-In . SVG Version: 6.00 Build 0) --> <svg xmlns="http://www.w3.org/2000/svg" xmlns:xlink="http://www.w3.org/1999/xlink" id="Слой_1" x="0px" y="0px" viewBox="0 0 512 512" style="enable-background:new 0 0 512 512;" xml:space="preserve"> <style type="text/css"> .st0{fill:#0758B3;} </style> <g> <g id="surface1"> <path class="st0" d="M297.8,247.6h-34.1v-17.1h34.1V247.6z"></path> <path class="st0" d="M-0.9,213.5v69.1c0,13.3,8,25.2,20.4,30.1l27.6,11.1c1,0.4,2.1,0.6,3.2,0.6h3.1c5.1,14.6,16.6,26.1,31.3,31.3 c26.6,9.3,55.7-4.7,65-31.3h228c5.1,14.6,16.6,26.1,31.3,31.3c26.6,9.3,55.7-4.7,65-31.3h28.7c4.7,0,8.5-3.8,8.5-8.5v-50.7 c0-13.9-7.5-26.8-19.6-33.7c-29.8-17-63.3-26.1-97.6-26.5l-29.3-16c-42.5-23.1-90.1-35.3-138.5-35.3h-10.1 c-41,0-81.5,8.7-118.9,25.6c-11.3,5.1-22.3,10.9-32.8,17.4l-58,8.3C2.2,205.7-0.9,209.3-0.9,213.5z M391.7,307.4 c0-16.2,11.4-30.2,27.3-33.5c18.5-3.8,36.5,8.1,40.3,26.6c3.8,18.5-8.1,36.5-26.6,40.3c-18.5,3.8-36.5-8.1-40.3-26.6 C391.9,312,391.7,309.7,391.7,307.4z M238.1,222h153.6c32.1,0,63.6,8.4,91.4,24.3c6.8,3.9,11,11.1,11,18.9v42.1H477 c0-28.3-22.9-51.2-51.2-51.2s-51.2,22.9-51.2,51.2H238.1V222z M238.1,171.2c41.5,1.8,82,13,118.5,32.9l1.6,0.9H238.1V171.2z M221,205h-90.3l-14.9-14.9c31.9-12.7,66-19.3,100.4-19.2h4.8V205z M67.4,307.4c0-16.2,11.4-30.2,27.3-33.5 c18.5-3.8,36.5,8.1,40.3,26.6c3.8,18.5-8.1,36.5-26.6,40.3c-18.5,3.8-36.5-8.1-40.3-26.6C67.6,312,67.4,309.7,67.4,307.4z M16.2,220.9l52.4-7.5c1.2-0.2,2.3-0.6,3.3-1.2c8.7-5.4,17.8-10.4,27.1-14.8l22.1,22.1c1.6,1.6,3.8,2.5,6,2.5H221v85.3h-68.3 c0-28.3-22.9-51.2-51.2-51.2c-1.8,0-3.5,0.1-5.2,0.3c-0.6,0.1-1.2,0.2-1.9,0.3c-1.1,0.2-2.1,0.3-3.2,0.5c-0.7,0.1-1.3,0.3-1.9,0.5 c-1,0.2-2,0.5-3,0.8c-0.7,0.2-1.3,0.5-2.1,0.8c-0.9,0.3-1.8,0.6-2.6,0.9c-0.7,0.3-1.3,0.6-2.1,1s-1.6,0.8-2.3,1.1 c-0.7,0.4-1.3,0.7-2,1.2c-0.7,0.5-1.5,0.9-2.2,1.3c-0.7,0.5-1.3,1-2,1.5c-0.6,0.5-1.3,0.9-2,1.5c-0.6,0.6-1.3,1.2-1.9,1.7 c-0.6,0.5-1.2,1-1.8,1.6c-0.6,0.6-1.2,1.3-1.7,1.9c-0.5,0.5-1,1.1-1.6,1.7c-0.5,0.7-1.1,1.4-1.5,2c-0.5,0.6-0.9,1.2-1.4,1.9 c-0.5,0.7-1,1.5-1.3,2.2c-0.4,0.7-0.8,1.3-1.2,2c-0.4,0.7-0.8,1.5-1.1,2.3c-0.4,0.7-0.8,1.4-1.1,2.2c-0.3,0.8-0.6,1.6-0.9,2.3 c-0.3,0.8-0.6,1.5-0.9,2.3c-0.3,0.8-0.4,1.6-0.6,2.4c-0.2,0.8-0.5,1.7-0.6,2.5c-0.2,0.8-0.3,1.6-0.4,2.5c-0.1,0.9-0.3,1.7-0.4,2.6 c-0.1,0.9-0.1,1.8-0.2,2.6c-0.1,0.8-0.2,1.6-0.2,2.3l-24.5-9.8c-5.8-2.3-9.7-8-9.7-14.3v-35h25.6v-17.1H16.2V220.9z"></path> </g> </g> </svg> 