<?xml version="1.0" encoding="iso-8859-1"?>
<!-- Generator: Adobe Illustrator 16.0.0, SVG Export Plug-In . SVG Version: 6.00 Build 0)  -->
<!DOCTYPE svg PUBLIC "-//W3C//DTD SVG 1.1//EN" "http://www.w3.org/Graphics/SVG/1.1/DTD/svg11.dtd">
<svg version="1.1" id="Capa_1" xmlns="http://www.w3.org/2000/svg" xmlns:xlink="http://www.w3.org/1999/xlink" x="0px" y="0px"
	 width="554.625px" height="554.625px" viewBox="0 0 554.625 554.625" style="enable-background:new 0 0 554.625 554.625;"
	 xml:space="preserve">
<g>
	<g id="Layer_2_30_">
		<path d="M143.438,353.812c38.25,0,105.188-19.125,133.875-76.5c28.688,57.375,95.625,76.5,133.875,76.5
			c124.312,0,143.438-86.062,143.438-86.062c-9.562,9.562-28.688,19.125-57.375,19.125c-47.812,0-57.375-86.062-124.312-86.062
			s-95.625,47.812-95.625,47.812s-28.688-47.812-95.625-47.812s-76.5,86.062-124.312,86.062c-28.688,0-47.812-9.562-57.375-19.125
			C0,267.75,19.125,353.812,143.438,353.812z"/>
	</g>
</g>
<g>
</g>
<g>
</g>
<g>
</g>
<g>
</g>
<g>
</g>
<g>
</g>
<g>
</g>
<g>
</g>
<g>
</g>
<g>
</g>
<g>
</g>
<g>
</g>
<g>
</g>
<g>
</g>
<g>
</g>
</svg>
