<svg version="1.1" id="Capa_1" fill="#9ab3c5" xmlns="http://www.w3.org/2000/svg" xmlns:xlink="http://www.w3.org/1999/xlink" x="0" y="0" viewBox="0 0 512 512" xml:space="preserve"><path d="M452 40h-24V0h-40v40H124V0H84v40H60C26.9 40 0 66.9 0 100v352c0 33.1 26.9 60 60 60h392c33.1 0 60-26.9 60-60V100c0-33.1-26.9-60-60-60zm20 412c0 11-9 20-20 20H60c-11 0-20-9-20-20V188h432v264zm0-304H40v-48c0-11 9-20 20-20h24v40h40V80h264v40h40V80h24c11 0 20 9 20 20v48z"/><path d="M76 230h40v40H76zm80 0h40v40h-40zm80 0h40v40h-40zm80 0h40v40h-40zm80 0h40v40h-40zM76 310h40v40H76zm80 0h40v40h-40zm80 0h40v40h-40zm80 0h40v40h-40zM76 390h40v40H76zm80 0h40v40h-40zm80 0h40v40h-40zm80 0h40v40h-40zm80-80h40v40h-40z"/></svg>