<svg version="1.1" id="Слой_1" fill="#ec4e4f" xmlns="http://www.w3.org/2000/svg" xmlns:xlink="http://www.w3.org/1999/xlink" x="0" y="0" viewBox="0 0 512 512" xml:space="preserve"><g id="surface1"><path d="M256 158.5c-53.8 0-97.6 43.8-97.6 97.6s43.8 97.6 97.6 97.6 97.6-43.8 97.6-97.6c-.1-53.9-43.8-97.6-97.6-97.6zm57.9 79.1L244 307.5c-2.9 2.9-6.8 4.4-10.6 4.4s-7.7-1.5-10.6-4.4l-26.7-26.7c-5.9-5.9-5.9-15.4 0-21.2 5.9-5.9 15.4-5.9 21.2 0l16.1 16.1 59.3-59.3c5.9-5.9 15.4-5.9 21.2 0 5.9 5.9 5.9 15.4 0 21.2z"/><path d="M473.5 138.9v-.4c-.2-4.9-.4-10.1-.5-15.9-.4-28.2-22.9-51.6-51.1-53.2C363.1 66.2 317.5 47 278.6 9l-.3-.3c-12.7-11.6-31.8-11.6-44.5 0l-.4.3C194.5 47 149 66.2 90.1 69.5 61.9 71 39.4 94.4 39 122.6c-.1 5.8-.2 11-.5 15.9v.9c-1.1 60-2.6 134.7 22.4 202.5 13.7 37.3 34.6 69.7 61.9 96.3 31.1 30.3 71.8 54.4 121 71.6 1.6.6 3.3 1 5 1.4 2.4.5 4.8.7 7.2.7 2.4 0 4.8-.2 7.2-.7 1.7-.3 3.4-.8 5-1.4 49.2-17.2 89.9-41.3 120.9-71.6 27.3-26.7 48.1-59.1 61.9-96.4 25-67.9 23.6-142.7 22.5-202.9zM256 383.6c-70.4 0-127.6-57.2-127.6-127.6S185.6 128.4 256 128.4c70.4 0 127.6 57.2 127.6 127.6S326.4 383.6 256 383.6z"/></g></svg>