<svg version="1.1" id="Capa_1" fill="#ec4e4f" xmlns="http://www.w3.org/2000/svg" xmlns:xlink="http://www.w3.org/1999/xlink" x="0" y="0" viewBox="0 0 512 512" xml:space="preserve"><path d="M303.1 333.1v3.2c0 8.3-6.7 15-15 15h-64.3c-8.3 0-15-6.7-15-15v-3.2H16.1v123.7c0 30.4 24.7 55.2 55.2 55.2h369.5c30.4 0 55.2-24.7 55.2-55.2V333.1H303.1zM456.8 96.4h-57.3V55.2c0-30.4-24.7-55.2-55.2-55.2H167.6c-30.4 0-55.2 24.7-55.2 55.2v41.2H55.2C24.7 96.4 0 121.1 0 151.6v136.6c0 8.3 6.7 15 15 15h193.9V240c0-8.3 6.7-15 15-15h64.3c8.3 0 15 6.7 15 15v63.2H497c8.3 0 15-6.7 15-15V151.6c0-30.5-24.7-55.2-55.2-55.2zm-87.3 0h-227V55.2c0-13.9 11.3-25.2 25.2-25.2h176.7c13.9 0 25.2 11.3 25.2 25.2v41.2z"/><path d="M238.9 254.9h34.3v66.4h-34.3v-66.4z"/></svg>