<svg version="1.1" id="Capa_1" fill="#ec4e4f" xmlns="http://www.w3.org/2000/svg" xmlns:xlink="http://www.w3.org/1999/xlink" x="0" y="0" viewBox="0 0 512 512" xml:space="preserve"><path d="M453.6 237.3c-1.5-18.8-5.6-37-12.3-54.5l46.1-37-75-93.6L366.5 89c-15.8-10.7-33-18.9-51.1-24.6V6.1h-120v58.7c-19 6.1-36.8 15-53.2 26.5l-46.3-36L22.3 150l47.2 36.6c-6.3 17.5-10 35.8-11.2 54.5L0 255l27.9 116.7 41-9.8 62.4-62.4C99.4 213 163.5 120.6 256.1 120.6c73.4 0 132.9 59.5 132.9 132.9 0 90.7-89 154.7-174.8 126.2l-88.9 88.9 79.1 37.3 26.3-55.8c18.2 2.3 36.3 2.1 54.1-.5l26.9 55.1L419.6 452l-26.9-54.9c13.3-12.7 24.7-27 34.1-42.8l59 13.2L512 250.4l-58.4-13.1z"/><path d="M341.3 219.1l-8.4-21.2-50.6 50.6-22.8-22.8 50.6-50.6-21.2-8.4c-82.9-33-159.5 57.7-116 133.5-111.8 111.9-16.2 16.3-150.6 150.7l39.2 39.2c78.1-78.1 2.2-2.2 152.1-152 76.4 37 159.2-39.8 127.7-119z"/></svg>