<svg version="1.1" id="Capa_1" fill="#ec4e4f" xmlns="http://www.w3.org/2000/svg" xmlns:xlink="http://www.w3.org/1999/xlink" x="0" y="0" viewBox="0 0 512 512" xml:space="preserve"><path d="M509 186l-26.9-35.8-14.9 104.5c-1.4 9.6-5.9 18.6-12.7 25.5L270.6 464c-16 16-37.4 24.9-60.1 24.9-6.8 0-13.5-.8-19.9-2.3 9.8 15.3 26.9 25.5 46.4 25.5h220c30.3 0 55-24.7 55-55V195c0-3.2-1.1-6.4-3-9z"/><circle cx="309.5" cy="234.2" r="15"/><circle cx="139.8" cy="234.2" r="15"/><path d="M249.4 442.8L433.3 259c2.3-2.3 3.8-5.3 4.2-8.5L458.7 102c.7-4.7-.9-9.4-4.2-12.7l-31.8-31.8-42.4 42.4 10.6 10.6c5.9 5.9 5.9 15.4 0 21.2-2.9 2.9-6.8 4.4-10.6 4.4s-7.7-1.5-10.6-4.4l-42.4-42.4c-5.9-5.9-5.9-15.4 0-21.2 5.9-5.9 15.4-5.9 21.2 0L359 78.6l42.4-42.4-31.8-31.8c-3.3-3.3-8.1-4.9-12.7-4.2L208.4 21.4c-3.2.5-6.2 1.9-8.5 4.2L16.1 209.5c-21.4 21.4-21.4 56.3 0 77.8l155.6 155.6c10.7 10.7 24.8 16.1 38.9 16.1s28.1-5.5 38.8-16.2zm60.1-253.6c24.8 0 45 20.2 45 45s-20.2 45-45 45-45-20.2-45-45 20.2-45 45-45zm-169.7 90c-24.8 0-45-20.2-45-45s20.2-45 45-45 45 20.2 45 45-20.2 45-45 45zm49.5 76.1c-1.6 0-3.2-.2-4.7-.8-7.9-2.6-12.1-11.1-9.5-19l70.7-212.1c2.6-7.9 11.1-12.1 19-9.5 7.9 2.6 12.1 11.1 9.5 19L203.6 345c-2.1 6.3-8 10.3-14.3 10.3zM454.5 25.6c5.9-5.9 5.9-15.4 0-21.2-5.9-5.9-15.4-5.9-21.2 0l-31.8 31.8 21.2 21.2 31.8-31.8z"/></svg>