<svg version="1.1" id="Capa_1" fill="#ec4e4f" xmlns="http://www.w3.org/2000/svg" xmlns:xlink="http://www.w3.org/1999/xlink" x="0" y="0" viewBox="0 0 512 512" xml:space="preserve"><path d="M437 75C388.7 26.6 324.4 0 256 0S123.3 26.6 75 75 0 187.6 0 256s26.6 132.7 75 181 112.6 75 181 75 132.7-26.6 181-75 75-112.6 75-181-26.6-132.7-75-181zM256 461.8c-113.5 0-205.8-92.3-205.8-205.8v-.9c.6-112.1 91.1-203.3 203-204.8h2.8c113.5 0 205.8 92.3 205.8 205.8S369.5 461.8 256 461.8z"/><path d="M412.3 268.4c-8.4 0-15.1-6.8-15.1-15.1 0-8.4 6.8-15.1 15.1-15.1h18.3C422 154 353.8 87.3 269.1 81v15.9c0 8.4-6.8 15.1-15.1 15.1-8.4 0-15.1-6.8-15.1-15.1V81.4c-83.5 8.2-150 75.1-157.5 158.8h16.4c8.4 0 15.1 6.8 15.1 15.1 0 8.4-6.8 15.1-15.1 15.1H81.1c7 85 74.8 153 159.7 160.3v-19.2c0-8.4 6.8-15.1 15.1-15.1s15.1 6.8 15.1 15.1v19.2c85.6-7.4 153.9-76.5 159.9-162.4h-18.6zm-95-52.3l-50.6 50.6c-2.8 2.8-6.7 4.4-10.7 4.4-4 0-7.9-1.6-10.7-4.4l-88.1-88.1c-5.9-5.9-5.9-15.5 0-21.4 5.9-5.9 15.5-5.9 21.4 0l77.4 77.4 39.9-39.9c5.9-5.9 15.5-5.9 21.4 0 5.9 5.9 5.9 15.5 0 21.4z"/></svg>