<svg version="1.1" fill="#9baec1" id="Capa_1" xmlns="http://www.w3.org/2000/svg" xmlns:xlink="http://www.w3.org/1999/xlink" x="0" y="0" viewBox="0 0 384 384" xml:space="preserve"><path d="M192 0C112.6 0 48 64.6 48 144c0 74.3 118.2 218.1 131.7 234.3 3 3.6 7.5 5.7 12.3 5.7s9.2-2.1 12.3-5.7C217.8 362.1 336 218.3 336 144 336 64.6 271.4 0 192 0zm0 342.6C152.2 292.5 80 191.7 80 144c0-61.8 50.2-112 112-112s112 50.2 112 112c0 47.7-72.2 148.5-112 198.6z"/><path d="M192 64c-44.1 0-80 35.9-80 80s35.9 80 80 80c21.7 0 42.1-8.6 57.3-24.1 6.2-6.3 6-16.5-.3-22.6-6.3-6.2-16.5-6-22.6.3-9.2 9.3-21.4 14.4-34.4 14.4-26.5 0-48-21.5-48-48s21.5-48 48-48 48 21.5 48 48c0 8.8 7.2 16 16 16s16-7.2 16-16c0-44.1-35.9-80-80-80z"/></svg>