<svg version="1.1" id="Capa_1" fill="#5a9ad8" xmlns="http://www.w3.org/2000/svg" xmlns:xlink="http://www.w3.org/1999/xlink" x="0" y="0" viewBox="0 0 565.3 512" xml:space="preserve"><path d="M530.4 262V137.5c0-26.5-21.5-48-48-48h-338c-.5-.1-.9-.1-1.4 0H60.3c-26.5 0-48 21.5-48 48v237c0 15.2 7.3 29.6 19.6 38.7l1 .6c8.1 5.7 17.6 8.6 27.4 8.6h422c9.8 0 19.3-3 27.4-8.6l.9-.6.1-.1c12.3-9.1 19.6-23.5 19.6-38.7V324l-.1-.3c-1.1-4.9-6.1-14-17.1-14h-.5c-13.3.6-17.9 11.4-18 11.9l-.2.5v49.7L347.6 254.9l146.8-114.2V264l.3.6c.2.4 5.3 10 17 10h.2c12.2-.1 16.4-5.5 17.8-8.5h.7c0-.9 0-1.7.1-2l.2-2-.3-.1zm-306.1 15.6l17.4 13.6c8.6 6.7 18.8 10.2 29.5 10.2s21.2-3.6 29.5-10.2l17.4-13.6 136.6 108.9h-367l136.6-108.9zm54.4-14.6c-4.3 3.4-10.4 3.4-14.8 0l-28.6-22.4-147.9-115h87.7c25.2 0 64.6 0 99.5.1 34.9 0 67 .1 81 0 3.8 0 6 0 7.3-.1h92.5l-147.9 115-28.8 22.4zm-83.6-8.1l-146.9 117V140.7l146.9 114.2z"/></svg>