<svg version="1.1" id="Слой_1" xmlns="http://www.w3.org/2000/svg" xmlns:xlink="http://www.w3.org/1999/xlink" x="0" y="0" viewBox="0 0 511 511" xml:space="preserve"><path fill="#FFC107" d="M509.7 196c-3.3-10.3-12.5-17.7-23.4-18.7L338.8 164 280.5 27.4c-4.3-10-14.1-16.5-25-16.5s-20.7 6.5-25 16.5L172.2 164 24.7 177.3c-10.8 1-20 8.3-23.4 18.7-3.4 10.3-.3 21.7 7.9 28.9l111.5 97.8-32.8 144.8c-2.4 10.6 1.7 21.7 10.6 28 4.7 3.4 10.3 5.2 15.9 5.2 4.8 0 9.6-1.3 13.9-3.9l127.2-76 127.2 76c9.3 5.6 21 5.1 29.9-1.3 8.8-6.4 13-17.4 10.6-28l-32.9-144.8 111.5-97.8c8.1-7.2 11.2-18.5 7.9-28.9z"/></svg>