<svg version="1.1" fill="#5a9ad8" id="Capa_1" xmlns="http://www.w3.org/2000/svg" xmlns:xlink="http://www.w3.org/1999/xlink" x="0" y="0" viewBox="0 0 508.8 531.8" xml:space="preserve"><path d="M467.6 345.4l-54.8-55c-10.6-11-23.4-16.9-37-16.9-13.5 0-26.4 5.8-37.4 16.7l-29.3 29.2c-.8-.4-1.5-.8-2.2-1.2-.9-.4-1.7-.9-2.6-1.3-3.5-1.8-6.8-3.4-9.5-5.1-29.2-18.5-55.8-42.8-81.2-74-11.4-14.4-19.2-26.4-25.1-38.7 6.6-6.1 12.8-12.4 18.8-18.5l2.1-2.2c1.4-1.4 2.8-2.8 4.2-4.3l4.2-4.2c11.2-11.2 17.1-24.2 17.1-37.8 0-13.6-5.9-26.6-17.1-37.8L196.5 73l-.7-.3c-.6-.3-13.6-6-21.8 2.6-9.4 9.9-1 24.6-.6 25.2l.3.5 18.9 18.9c8.9 8.9 8.9 15.8 0 24.6l-2.9 2.9c-1.9 1.9-3.7 3.8-5.6 5.6l-.1.1c-8.9 9.1-16.5 16.7-24.9 24.2l-.1.1c-.2.2-.5.4-.9.9-9.9 10.1-8.2 20.2-6 27l.4 1.2c7.2 17.4 17.3 34 32.9 53.8l.3.3c27.9 34.4 57.3 61.1 89.7 81.6 4.3 2.7 8.6 4.9 12.7 6.9 3.5 1.8 6.8 3.4 9.5 5.1l.3.2c.1 0 .2.1.2.2.3.2.6.4 1 .6 4 2 7.9 3 11.9 3 6.7 0 12.9-2.8 18.4-8.2l34.2-34.2c2.8-2.8 7.2-6.2 11.9-6.2 5 0 9.1 3.7 11.1 5.8l55.5 55.5c8.5 8.4 8.5 16.1 0 25-3.1 3.4-6.3 6.5-9.8 9.8l-2.3 2.2c-6.4 6.1-13.2 12.8-19.6 20.3-9.3 10-19.9 14.4-34.2 14.4-1.5 0-3 0-4.3-.1-29-1.9-56-13.2-76.3-23-56.2-27.2-105.4-65.8-146.2-114.5-33.7-40.6-56.3-78.3-71.2-118.6-9-24.1-12.4-42.9-10.9-60.6.9-10.6 5-19.4 12.5-26.9l34-34c4.1-3.8 8.3-5.8 12.1-5.8 1.7 0 2.7.5 4.3 1.4 1.4.7 3.2 1.7 5.6 2.1 5.2.9 14.6-2.4 18.1-9.7 5.5-10.9-.2-20.1-.4-20.5l-.5-.9-.9-.5c-8-5.1-17.2-7.8-26.4-7.8-13.4 0-26.2 5.5-37.2 16L54.2 73.4C40.7 87 33 103.6 31.3 122.7c-2.5 30 6.3 57.8 13.1 76.1 16.4 44.3 41 85.3 77.3 128.9 44.3 52.8 97.5 94.5 158.2 123.9 23.5 11.1 54.9 24.2 89.7 26.4 2.3.1 4.5.2 6.5.2 24.4 0 45-8.8 61-26.3l.4-.5v-.1l.3-.3c4.6-5.6 10-10.7 15.6-16.2l1.4-1.3c5.2-5 9.4-9.1 13.1-13 10.7-11.1 16.4-24.2 16.4-37.7 0-13.6-5.8-26.5-16.7-37.4z"/></svg>