<svg width="270" height="28" viewBox="0 0 270 28" fill="none" xmlns="http://www.w3.org/2000/svg">
<ellipse cx="222.435" cy="13.644" rx="13.9897" ry="13.644" fill="#F59124"/>
<path d="M227.038 9.65826C225.94 8.67694 224.614 8.18628 222.967 8.18628C221.275 8.18628 219.812 8.72154 218.623 9.83668C217.433 10.9518 216.839 12.3346 216.839 13.985C216.839 15.5908 217.388 16.9289 218.531 18.0887C219.674 19.2484 221.184 19.7837 223.15 19.7837C224.294 19.7837 225.437 19.5607 226.58 19.07C226.946 18.9362 227.129 18.4901 226.992 18.1333C226.855 17.7764 226.398 17.598 226.032 17.7318C225.071 18.1333 224.111 18.3563 223.196 18.3563C221.733 18.3563 220.589 17.9103 219.766 17.0182C218.943 16.126 218.531 15.1001 218.531 13.9404C218.531 12.6468 218.988 11.5763 219.812 10.7288C220.681 9.88129 221.733 9.43523 223.013 9.43523C224.156 9.43523 225.163 9.79207 225.986 10.5058C226.809 11.2194 227.175 12.1116 227.175 13.1821C227.175 13.8958 226.992 14.5203 226.626 15.0109C226.26 15.5016 225.894 15.7246 225.483 15.7246C225.254 15.7246 225.163 15.6354 225.163 15.3678C225.163 15.1893 225.163 14.9663 225.208 14.7433L225.666 11.1302H224.111L224.019 11.4871C223.608 11.1748 223.196 10.9964 222.739 10.9964C222.007 10.9964 221.367 11.3087 220.818 11.8885C220.269 12.4684 220.04 13.2267 220.04 14.1188C220.04 15.0109 220.269 15.7246 220.772 16.3045C221.229 16.8397 221.824 17.1074 222.464 17.1074C223.059 17.1074 223.562 16.8843 223.974 16.3937C224.294 16.8397 224.751 17.1074 225.391 17.1074C226.306 17.1074 227.084 16.7059 227.77 15.9476C228.456 15.1893 228.776 14.2526 228.776 13.1375C228.639 11.7993 228.09 10.595 227.038 9.65826ZM223.425 15.1001C223.15 15.457 222.83 15.6354 222.419 15.6354C222.144 15.6354 221.961 15.5016 221.778 15.2339C221.595 14.9663 221.55 14.6541 221.55 14.2526C221.55 13.762 221.641 13.3605 221.87 13.0929C222.098 12.7806 222.373 12.6468 222.693 12.6468C222.967 12.6468 223.242 12.736 223.47 13.0037C223.699 13.2267 223.791 13.5389 223.791 13.8958C223.836 14.3418 223.699 14.7433 223.425 15.1001Z" fill="white"/>
<ellipse cx="83.9379" cy="13.644" rx="13.9896" ry="13.644" fill="#2F89CE"/>
<path d="M76.489 13.8991L79.7052 15.0688L80.959 19.0031C81.0136 19.2689 81.3406 19.3221 81.5587 19.1626L83.3576 17.7271C83.5211 17.5676 83.7937 17.5676 84.0118 17.7271L87.228 20.0133C87.4461 20.1728 87.7732 20.0664 87.8277 19.8006L90.2263 8.63562C90.2808 8.36978 90.0082 8.10395 89.7356 8.21029L76.489 13.2079C76.1619 13.3143 76.1619 13.7928 76.489 13.8991ZM80.7955 14.4839L87.119 10.7091C87.228 10.6559 87.3371 10.8154 87.228 10.8686L82.0493 15.6004C81.8858 15.7599 81.7222 15.9726 81.7222 16.2384L81.5587 17.5144C81.5587 17.6739 81.2861 17.7271 81.2316 17.5144L80.5774 15.1751C80.4139 14.9093 80.5229 14.5903 80.7955 14.4839Z" fill="white"/>
<ellipse cx="187.461" cy="13.644" rx="13.9897" ry="13.644" fill="url(#paint0_linear)"/>
<path d="M192.064 8.18628H183.557C182.597 8.18628 181.865 8.89997 181.865 9.83668V18.1333C181.865 19.07 182.597 19.7837 183.557 19.7837H192.064C193.025 19.7837 193.756 19.07 193.756 18.1333V9.83668C193.756 8.89997 193.025 8.18628 192.064 8.18628ZM187.811 17.4642C189.777 17.4642 191.378 15.9476 191.378 14.1188C191.378 13.8066 191.332 13.4497 191.241 13.1821H192.247V17.9103C192.247 18.1333 192.064 18.3563 191.79 18.3563H183.832C183.603 18.3563 183.375 18.1779 183.375 17.9103V13.1375H184.426C184.335 13.4497 184.289 13.762 184.289 14.0742C184.243 15.9476 185.844 17.4642 187.811 17.4642ZM187.811 16.126C186.53 16.126 185.524 15.1447 185.524 13.9404C185.524 12.736 186.53 11.7547 187.811 11.7547C189.091 11.7547 190.098 12.736 190.098 13.9404C190.098 15.1893 189.091 16.126 187.811 16.126ZM192.201 11.3533C192.201 11.6209 191.973 11.8439 191.698 11.8439H190.418C190.143 11.8439 189.915 11.6209 189.915 11.3533V10.1489C189.915 9.88129 190.143 9.65826 190.418 9.65826H191.698C191.973 9.65826 192.201 9.88129 192.201 10.1489V11.3533Z" fill="white"/>
<ellipse cx="13.9896" cy="13.644" rx="13.9896" ry="13.644" fill="#7294C7"/>
<path d="M20.8488 17.1335C20.8488 17.0769 20.7907 17.0769 20.7907 17.0202C20.5584 16.5671 20.0358 16.0007 19.3389 15.3777C18.9905 15.0945 18.8162 14.868 18.7001 14.7547C18.5259 14.5281 18.5259 14.3582 18.584 14.1317C18.642 13.9618 18.8743 13.6786 19.2808 13.1688C19.5131 12.8856 19.6293 12.7157 19.8035 12.5458C20.6746 11.413 21.0811 10.6767 20.9649 10.3369L20.9069 10.2803C20.8488 10.2236 20.7907 10.167 20.6746 10.167C20.5584 10.1103 20.3842 10.1103 20.21 10.167H18.0032C17.9452 10.167 17.9452 10.167 17.829 10.167C17.7709 10.167 17.7129 10.167 17.7129 10.167H17.6548H17.5967L17.5386 10.2236C17.4806 10.2802 17.4806 10.2802 17.4806 10.3369C17.2483 10.9599 16.9579 11.4697 16.6676 12.036C16.4933 12.3192 16.3191 12.6024 16.1449 12.829C15.9707 13.0555 15.8545 13.2255 15.7384 13.3387C15.6222 13.452 15.5061 13.5086 15.448 13.6219C15.3899 13.6786 15.2738 13.7352 15.2738 13.6786C15.2157 13.6786 15.1577 13.6786 15.1577 13.6219C15.0996 13.5653 15.0415 13.5086 14.9834 13.452C14.9254 13.3954 14.9254 13.2821 14.8673 13.1688C14.8673 13.0555 14.8673 12.9423 14.8673 12.8856C14.8673 12.829 14.8673 12.6591 14.8673 12.5458C14.8673 12.3759 14.8673 12.2626 14.8673 12.206C14.8673 12.036 14.8673 11.8095 14.8673 11.5829C14.8673 11.3564 14.8673 11.1865 14.8673 11.0732C14.8673 10.9599 14.8673 10.79 14.8673 10.6767C14.8673 10.5068 14.8673 10.3935 14.8673 10.3369C14.8673 10.2802 14.8092 10.167 14.8092 10.1103C14.7512 10.0537 14.6931 9.99706 14.635 9.94042C14.5769 9.88378 14.4608 9.88378 14.4027 9.82714C14.1124 9.7705 13.7639 9.71387 13.3574 9.71387C12.4283 9.71387 11.7894 9.77051 11.5572 9.88378C11.441 9.94042 11.3249 9.99706 11.2668 10.1103C11.1506 10.2236 11.1506 10.2803 11.2087 10.2803C11.4991 10.3369 11.7314 10.4502 11.8475 10.6201L11.9056 10.7334C11.9637 10.79 11.9637 10.9033 12.0217 11.0732C12.0798 11.2431 12.0798 11.413 12.0798 11.6396C12.0798 11.9794 12.0798 12.3192 12.0798 12.5458C12.0798 12.829 12.0217 12.9989 12.0217 13.1688C12.0217 13.3387 11.9637 13.452 11.9056 13.5086C11.8475 13.6219 11.8475 13.6786 11.7894 13.6786C11.7894 13.6786 11.7894 13.7352 11.7314 13.7352C11.6733 13.7352 11.6152 13.7918 11.4991 13.7918C11.441 13.7918 11.3249 13.7352 11.2668 13.6786C11.1506 13.6219 11.0345 13.5087 10.9764 13.3954C10.8603 13.2821 10.7441 13.1122 10.628 12.8856C10.5118 12.6591 10.3376 12.4325 10.2215 12.0927L10.1053 11.8661C10.0473 11.7529 9.93112 11.5263 9.81497 11.2431C9.69883 10.9599 9.58268 10.7334 9.46653 10.4502C9.40846 10.3369 9.35039 10.2802 9.29232 10.2236H9.23424C9.23424 10.2236 9.17616 10.167 9.11809 10.167C9.06002 10.167 9.00195 10.1103 8.94388 10.1103H6.85326C6.62096 10.1103 6.50482 10.167 6.44675 10.2236L6.38867 10.2803C6.38867 10.2803 6.38867 10.3369 6.38867 10.3935C6.38867 10.4502 6.38868 10.5068 6.44675 10.6201C6.73711 11.2997 7.08555 11.9794 7.43398 12.6591C7.78242 13.2821 8.13086 13.8485 8.36315 14.245C8.65352 14.6414 8.8858 15.0379 9.17617 15.3777C9.46653 15.7176 9.64075 15.9441 9.69882 16.0574C9.81496 16.1707 9.87303 16.2273 9.93111 16.2839L10.1053 16.4539C10.2215 16.5671 10.3957 16.737 10.628 16.907C10.8603 17.0769 11.1506 17.2468 11.441 17.4167C11.7314 17.5866 12.0798 17.6999 12.4282 17.8132C12.8348 17.9265 13.1832 17.9831 13.5316 17.9265H14.4027C14.5769 17.9265 14.6931 17.8698 14.8092 17.7565L14.8673 17.6999C14.8673 17.6433 14.9254 17.6433 14.9254 17.5866C14.9254 17.53 14.9254 17.4734 14.9254 17.3601C14.9254 17.1335 14.9254 16.9636 14.9834 16.7937C15.0415 16.6238 15.0415 16.5105 15.0996 16.3972C15.1577 16.2839 15.2157 16.2273 15.2738 16.1707C15.3319 16.114 15.39 16.0574 15.39 16.0574H15.448C15.5642 16.0007 15.7384 16.0574 15.8545 16.1707C16.0288 16.2839 16.203 16.4539 16.3191 16.6238C16.4353 16.7937 16.6095 16.9636 16.8418 17.1902C17.0741 17.4167 17.2483 17.5866 17.3644 17.6433L17.5386 17.7565C17.6548 17.8132 17.7709 17.8698 17.9452 17.9265C18.1194 17.9831 18.2355 17.9831 18.3517 17.9831L20.3261 17.9265C20.5004 17.9265 20.6746 17.8698 20.7907 17.8132C20.9069 17.7565 20.9649 17.6999 20.9649 17.5866C20.9649 17.53 20.9649 17.4167 20.9649 17.3601C20.8488 17.2468 20.8488 17.1902 20.8488 17.1335Z" fill="white"/>
<ellipse cx="48.9637" cy="13.644" rx="13.9896" ry="13.644" fill="#4E6297"/>
<path d="M55.2589 9.42704C55.2589 8.4055 54.3347 7.50415 53.2873 7.50415H45.3393C44.2919 7.50415 43.3677 8.4055 43.3677 9.42704V17.1787C43.3677 18.2002 44.2919 19.1016 45.3393 19.1016H49.3441V14.715H47.8654V12.7921H49.3441V12.0109C49.3441 10.6889 50.3299 9.54721 51.5622 9.54721H53.1641V11.4701H51.5622C51.3773 11.4701 51.1925 11.6504 51.1925 12.0109V12.7921H53.1641V14.715H51.1925V19.1016H53.2873C54.3347 19.1016 55.2589 18.2002 55.2589 17.1787V9.42704Z" fill="white"/>
<ellipse cx="153.886" cy="13.644" rx="13.9896" ry="13.644" fill="#7C509A"/>
<path d="M158.26 7.19444C155.594 6.69788 152.826 6.69788 150.16 7.19444C148.98 7.44273 147.494 8.8331 147.237 9.92554C146.776 12.0608 146.776 14.2456 147.237 16.3809C147.545 17.4733 149.032 18.8637 150.16 19.112C150.211 19.112 150.262 19.1616 150.262 19.2113V22.3396C150.262 22.4886 150.467 22.5879 150.57 22.4389L152.108 20.8996C152.108 20.8996 153.338 19.6582 153.543 19.4596C153.543 19.4596 153.595 19.4099 153.646 19.4099C155.184 19.4596 156.774 19.3106 158.312 19.0623C159.491 18.814 160.978 17.4237 161.234 16.3312C161.696 14.196 161.696 12.0111 161.234 9.87589C160.926 8.8331 159.44 7.44273 158.26 7.19444ZM158.312 16.5298C158.055 17.0264 157.748 17.4237 157.235 17.6719C157.081 17.7216 156.927 17.7712 156.774 17.8209C156.568 17.7712 156.415 17.7216 156.261 17.6719C154.62 17.0264 153.082 16.1326 151.852 14.8415C151.185 14.0967 150.621 13.2525 150.16 12.3587C149.955 11.9118 149.749 11.5145 149.596 11.0676C149.442 10.6704 149.698 10.2731 149.955 9.9752C150.211 9.67726 150.519 9.47864 150.877 9.32967C151.134 9.1807 151.39 9.28001 151.595 9.47864C152.005 9.9752 152.416 10.4718 152.723 11.018C152.928 11.3656 152.877 11.7628 152.518 12.0111C152.416 12.0608 152.364 12.1104 152.262 12.2097C152.21 12.2594 152.108 12.309 152.057 12.4084C151.954 12.5573 151.954 12.7063 152.005 12.8553C152.416 13.9974 153.185 14.8912 154.364 15.3877C154.569 15.4871 154.723 15.5367 154.979 15.5367C155.338 15.4871 155.492 15.0898 155.748 14.8912C156.005 14.6926 156.312 14.6926 156.62 14.8415C156.876 14.9905 157.132 15.1891 157.44 15.3877C157.696 15.5864 157.953 15.7353 158.209 15.934C158.363 16.0333 158.414 16.2816 158.312 16.5298ZM156.158 12.8056C156.056 12.8056 156.107 12.8056 156.158 12.8056C155.953 12.8056 155.902 12.7063 155.851 12.5573C155.851 12.458 155.851 12.309 155.799 12.2097C155.748 12.0111 155.646 11.8125 155.441 11.6635C155.338 11.6139 155.235 11.5642 155.133 11.5145C154.979 11.4649 154.877 11.4649 154.723 11.4649C154.569 11.4152 154.518 11.3159 154.518 11.167C154.518 11.0676 154.671 10.9683 154.774 10.9683C155.594 11.018 156.21 11.4649 156.312 12.4084C156.312 12.458 156.312 12.5573 156.312 12.607C156.312 12.7063 156.261 12.8056 156.158 12.8056ZM155.646 10.6207C155.389 10.5214 155.133 10.4221 154.825 10.3725C154.723 10.3725 154.569 10.3228 154.466 10.3228C154.313 10.3228 154.21 10.2235 154.261 10.0745C154.261 9.92554 154.364 9.82623 154.518 9.87589C155.03 9.92554 155.492 10.0249 155.953 10.2235C156.876 10.6704 157.389 11.4152 157.543 12.4084C157.543 12.458 157.543 12.5077 157.543 12.5573C157.543 12.6566 157.543 12.756 157.543 12.9049C157.543 12.9546 157.543 13.0042 157.543 13.0539C157.491 13.2525 157.132 13.3022 157.081 13.0539C157.081 13.0042 157.03 12.9049 157.03 12.8553C157.03 12.4084 156.927 11.9615 156.722 11.5642C156.415 11.1173 156.056 10.8194 155.646 10.6207ZM158.414 13.6001C158.26 13.6001 158.158 13.4511 158.158 13.3022C158.158 13.0042 158.107 12.7063 158.055 12.4084C157.85 10.8194 156.517 9.52829 154.928 9.28001C154.671 9.23035 154.415 9.23035 154.21 9.1807C154.056 9.1807 153.851 9.1807 153.8 8.98207C153.749 8.8331 153.902 8.68413 154.056 8.68413C154.107 8.68413 154.159 8.68413 154.159 8.68413C156.261 8.73379 154.261 8.68413 154.159 8.68413C156.312 8.73379 158.107 10.1242 158.465 12.2097C158.517 12.5573 158.568 12.9049 158.568 13.3022C158.671 13.4511 158.568 13.6001 158.414 13.6001Z" fill="white"/>
<ellipse cx="256.01" cy="13.644" rx="13.9896" ry="13.644" fill="#48C95F"/>
<path d="M261.555 8.22889C260.173 6.88581 258.331 6.13965 256.386 6.13965C252.342 6.13965 249.067 9.32326 249.067 13.253C249.067 14.4966 249.425 15.7402 250.039 16.7848L249.016 20.4659L252.905 19.471C253.98 20.0182 255.157 20.3167 256.386 20.3167C260.429 20.3167 263.705 17.133 263.705 13.2033C263.654 11.3628 262.937 9.57197 261.555 8.22889ZM259.917 15.79C259.764 16.1879 259.047 16.5859 258.689 16.6356C258.382 16.6853 257.972 16.6853 257.563 16.5859C257.307 16.4864 256.949 16.3869 256.539 16.1879C254.697 15.4418 253.52 13.651 253.417 13.5017C253.315 13.4023 252.65 12.5566 252.65 11.6612C252.65 10.7658 253.11 10.3679 253.264 10.1689C253.417 9.96993 253.622 9.96993 253.776 9.96993C253.878 9.96993 254.031 9.96993 254.134 9.96993C254.236 9.96993 254.39 9.92018 254.543 10.2684C254.697 10.6166 255.055 11.512 255.106 11.5617C255.157 11.6612 255.157 11.7607 255.106 11.8602C255.055 11.9597 255.004 12.0592 254.901 12.1587C254.799 12.2581 254.697 12.4074 254.646 12.4571C254.543 12.5566 254.441 12.6561 254.543 12.8053C254.646 13.0043 255.004 13.5515 255.567 14.0489C256.283 14.6458 256.846 14.8448 257.051 14.9443C257.256 15.0438 257.358 14.9941 257.461 14.8946C257.563 14.7951 257.921 14.3971 258.024 14.1982C258.126 13.9992 258.279 14.0489 258.433 14.0987C258.587 14.1484 259.508 14.5961 259.661 14.6956C259.866 14.7951 259.968 14.8448 260.02 14.8946C260.071 15.0438 260.071 15.392 259.917 15.79Z" fill="white"/>
<ellipse cx="118.912" cy="13.644" rx="13.9897" ry="13.644" fill="#00A9E7"/>
<path d="M126.129 14.3726C126.177 14.0005 126.225 13.6749 126.225 13.3028C126.225 9.58167 123.125 6.51176 119.262 6.51176C118.88 6.51176 118.546 6.55827 118.165 6.60479C117.545 6.27919 116.877 6.13965 116.209 6.13965C113.825 6.13965 111.917 8.0002 111.917 10.3259C111.917 10.9771 112.06 11.6283 112.394 12.2329C112.346 12.6051 112.299 12.9307 112.299 13.3028C112.299 17.0239 115.398 20.0938 119.262 20.0938C119.643 20.0938 119.977 20.0473 120.358 20.0007C120.978 20.2798 121.646 20.4659 122.314 20.4659C124.698 20.4659 126.606 18.6053 126.606 16.2796C126.606 15.6285 126.415 14.9773 126.129 14.3726ZM122.171 15.768C122.028 16.0471 121.837 16.2796 121.551 16.4657C121.265 16.6518 120.978 16.7913 120.597 16.8843C120.215 16.9774 119.786 17.0239 119.309 17.0239C118.308 17.0239 117.497 16.7913 116.925 16.3727C116.591 16.0936 116.305 15.768 116.162 15.3494C115.971 14.9773 116.305 14.5121 116.782 14.5121H116.925C117.211 14.5121 117.497 14.6982 117.592 14.9307C117.688 15.1633 117.831 15.3494 118.022 15.4889C118.308 15.7215 118.737 15.8145 119.262 15.8145C119.738 15.8145 120.12 15.7215 120.406 15.5819C120.692 15.4424 120.835 15.1633 120.835 14.8842C120.835 14.7447 120.788 14.6517 120.74 14.5586C120.692 14.4656 120.549 14.3726 120.454 14.3261C120.311 14.233 120.168 14.1865 119.929 14.14C119.738 14.0935 119.5 14.0005 119.214 13.954L118.928 13.8609C118.594 13.7679 118.212 13.6749 117.926 13.5818C117.592 13.4888 117.306 13.3493 117.068 13.2097C116.829 13.0702 116.638 12.8841 116.495 12.6051C116.352 12.3725 116.305 12.0469 116.305 11.6748C116.305 11.3027 116.4 10.9771 116.543 10.698C116.686 10.4189 116.925 10.1863 117.163 10.0468C117.449 9.86075 117.735 9.72121 118.117 9.67469C118.451 9.58167 118.832 9.53515 119.262 9.53515C119.738 9.53515 120.12 9.58167 120.502 9.67469C120.883 9.76772 121.169 9.90726 121.455 10.1398C121.742 10.3259 121.932 10.5585 122.075 10.8841C122.314 11.3027 121.98 11.8608 121.455 11.8608H121.312C121.026 11.8608 120.788 11.7213 120.645 11.4887C120.549 11.3492 120.454 11.2096 120.311 11.0701C120.072 10.8841 119.691 10.791 119.262 10.791C118.832 10.791 118.498 10.8841 118.26 11.0236C118.022 11.1631 117.926 11.3957 117.926 11.6283C117.926 11.7678 117.974 11.8608 118.022 11.9539C118.069 12.0469 118.165 12.1399 118.308 12.1864C118.451 12.2329 118.594 12.326 118.785 12.3725C118.975 12.419 119.214 12.4655 119.5 12.5585C119.786 12.6051 120.025 12.6981 120.311 12.7446C120.549 12.7911 120.788 12.8841 121.026 12.9307C121.265 13.0237 121.455 13.1167 121.646 13.2097C121.837 13.3028 121.98 13.4423 122.123 13.5818C122.266 13.7214 122.362 13.9074 122.409 14.0935C122.505 14.2796 122.505 14.5586 122.505 14.8377C122.409 15.1633 122.314 15.4889 122.171 15.768Z" fill="white"/>
<defs>
<linearGradient id="paint0_linear" x1="179.417" y1="24.2181" x2="197.473" y2="5.00607" gradientUnits="userSpaceOnUse">
<stop stop-color="#EEA054"/>
<stop offset="0.502762" stop-color="#D64763"/>
<stop offset="1" stop-color="#B62A99"/>
</linearGradient>
</defs>
</svg>
