<svg width="32" height="32" viewBox="0 0 32 32" fill="none" xmlns="http://www.w3.org/2000/svg">
<path d="M5.4086 19.4909L3.28728 17.3696C3.08955 17.1735 2.93497 16.9382 2.83342 16.6789C2.73188 16.4196 2.68562 16.1419 2.6976 15.8636C2.70958 15.5854 2.77954 15.3127 2.903 15.0631C3.02647 14.8134 3.20071 14.5923 3.41456 14.4139C5.82688 12.4745 8.66049 11.1279 11.6877 10.4824C14.4819 9.85956 17.3789 9.85956 20.173 10.4824C23.2127 11.1321 26.0567 12.4886 28.4744 14.4422C28.6876 14.6201 28.8615 14.8404 28.9849 15.0891C29.1083 15.3379 29.1785 15.6096 29.1912 15.8869C29.2038 16.1643 29.1585 16.4413 29.0583 16.7002C28.958 16.9591 28.8049 17.1943 28.6088 17.3908L26.4875 19.5122C26.1477 19.8587 25.6935 20.0699 25.2095 20.1063C24.7255 20.1427 24.2449 20.0019 23.857 19.7102C23.0886 19.1208 22.256 18.6203 21.3751 18.2182C21.0268 18.0602 20.7312 17.8057 20.5232 17.4849C20.3151 17.1641 20.2034 16.7903 20.2013 16.408V14.6119C17.4244 13.8482 14.4929 13.8482 11.716 14.6119V16.408C11.7139 16.7903 11.6022 17.1641 11.3941 17.4849C11.1861 17.8057 10.8904 18.0602 10.5422 18.2182C9.66127 18.6203 8.82866 19.1208 8.06025 19.7102C7.66831 20.0052 7.1816 20.1459 6.69269 20.1055C6.20378 20.065 5.74678 19.8463 5.4086 19.4909Z" stroke="white" stroke-width="2" stroke-linecap="round" stroke-linejoin="round"/>
</svg>
