<svg width="32" height="32" viewBox="0 0 32 32" fill="none" xmlns="http://www.w3.org/2000/svg">
<path d="M5.40885 19.4909L3.28753 17.3696C3.0898 17.1735 2.93521 16.9382 2.83367 16.6789C2.73212 16.4196 2.68586 16.1419 2.69784 15.8636C2.70982 15.5854 2.77979 15.3127 2.90325 15.0631C3.02671 14.8134 3.20095 14.5923 3.41481 14.4139C5.82712 12.4745 8.66073 11.1279 11.688 10.4824C14.4821 9.85956 17.3791 9.85956 20.1732 10.4824C23.213 11.1321 26.0569 12.4886 28.4747 14.4422C28.6879 14.6201 28.8617 14.8404 28.9851 15.0891C29.1085 15.3379 29.1788 15.6096 29.1914 15.8869C29.204 16.1643 29.1588 16.4413 29.0585 16.7002C28.9583 16.9591 28.8052 17.1943 28.609 17.3908L26.4877 19.5122C26.1479 19.8587 25.6937 20.0699 25.2098 20.1063C24.7258 20.1427 24.2451 20.0019 23.8573 19.7102C23.0889 19.1208 22.2562 18.6203 21.3753 18.2182C21.0271 18.0602 20.7314 17.8057 20.5234 17.4849C20.3154 17.1641 20.2037 16.7903 20.2015 16.408V14.6119C17.4246 13.8482 14.4931 13.8482 11.7162 14.6119V16.408C11.7141 16.7903 11.6024 17.1641 11.3944 17.4849C11.1863 17.8057 10.8907 18.0602 10.5424 18.2182C9.66151 18.6203 8.8289 19.1208 8.0605 19.7102C7.66855 20.0052 7.18184 20.1459 6.69294 20.1055C6.20403 20.065 5.74703 19.8463 5.40885 19.4909Z" stroke="white" stroke-width="2" stroke-linecap="round" stroke-linejoin="round"/>
</svg>
