<svg xmlns="http://www.w3.org/2000/svg" width="128.282" height="219.439" viewBox="0 0 128.282 219.439">
  <g id="boroda" transform="translate(-52.269 221.526)">
    <path id="vvvvv" d="M105.5-221c-11,1.8-19.1,4.7-22,8.1a28.623,28.623,0,0,0-6.3,25.4c.7,2.8.6,2.7-.9-.5a24.581,24.581,0,0,1,4.2-25.8c2-2.3,3.3-4.2,2.8-4.2-2.2,0-11.5,6.4-14.6,10-4.5,5.2-6.2,11.4-6.2,21.8.1,7.7,0,8.1-1.1,5a31.841,31.841,0,0,1-1.4-8.3l-.2-5L57.2-189c-3.1,6.6-3.6,17.2-.9,23.2,1.6,3.9,1,5-1.3,2.3-2.4-2.9-2.2-.7.4,6A95.056,95.056,0,0,1,59.7-143c1.5,7.7,1.7,8,4.4,8,2.3,0,3-.5,3.5-2.8.3-1.5,2-8,3.6-14.5,2-8,2.9-13.5,2.6-17.3-.2-4.5,0-5.4,1.2-5a143.554,143.554,0,0,0,27.3,6.7c16.6,2.1,41.8-.4,52.3-5.1,2.6-1.1,4.8-2,5-2s.1,1.9-.2,4.2c-.7,4.7.1,9,4.2,25.1l2.8,10.8,3-.3,3.1-.3,2.7-14.5c3.1-16.7,3.5-24.5,1.2-29.8l-1.6-3.7-2,4.3a17.845,17.845,0,0,1-2.3,4c-.2-.2.2-2.6.9-5.3a88.571,88.571,0,0,0,2-10.5l.7-5.5-6-1.8c-13.6-3.9-22.7-.6-30.4,11.3-3.5,5.4-2.8,1.7,1-4.8,4.3-7.6,14-11.9,24.8-11,6.9.6,6.1-.8-3.6-5.6-9.9-5-16-6.1-24.5-4.7-16.4,2.8-27.2,11.7-30.3,24.8l-.9,3.8-.1-3.5c-.1-7.7,5.3-17.1,12.7-22,4.5-3,14.1-6.4,21.7-7.6l4-.7-5-1.3C131-221.4,113.1-222.1,105.5-221Z" fill="#be9457"/>
    <path id="rrrr" d="M77.5-136a31.991,31.991,0,0,1-10.9,2c-5.5,0-5.8.1-5.3,2.2a90.171,90.171,0,0,1,1.3,10.5c.5,6,1.1,8.3,2,8.3,1.1,0,1.4-1.8,1.4-7.1,0-6,.2-7,1.4-6,.8.7,2.7,4.8,4.2,9.1,1.5,4.4,3.6,8.7,4.5,9.6,1.4,1.3,4.6,1.8,13.2,2.2l11.3.5,3.6-3.1a39.825,39.825,0,0,0,6.7-9.2c2.6-4.8,3.7-6,5.6-6,2,0,3,1.1,5.4,5.8a37.711,37.711,0,0,0,6.7,9.2l3.8,3.3,11.5-.5c13.4-.6,13.6-.8,17.1-11.3,1.2-3.6,3-7.5,4.1-8.7l2-2.3-.3,7.2c-.3,6.2-.1,7.3,1.3,7.3,1.3,0,1.7-1.5,2.3-8.3a91.331,91.331,0,0,1,1.2-10.4c.6-2.1.3-2.2-5.7-2.2a26.5,26.5,0,0,1-11.3-2.2c-4-1.7-6.1-2-11-1.6-9.8,1-20.5,3.7-20,5.1.6,1.5-3.7,3.6-7.1,3.6s-7.7-2.1-7.1-3.6c.3-.8-2.8-1.9-9.5-3.3C87.7-138.5,84-138.5,77.5-136Zm22.2,5.1c11,2.5,12.5,4.9,8.4,13.6-4.1,8.6-6.7,10.3-15.5,10.3-13.5,0-16.2-1.8-18.4-12.6-1.4-6.6-.6-9.3,3.2-11C81.2-132.2,93.3-132.4,99.7-130.9Zm55.8.3c3.3,1.4,3.5,1.8,3.5,6.4,0,6.3-2.6,13.9-5.3,15.4-1.2.6-6.3,1.3-11.4,1.6l-9.3.5-3.8-4a31.465,31.465,0,0,1-5.6-8.7c-1.8-4.7-1.8-4.9.1-7.4,1.4-1.9,3.5-3,7.4-3.8C139.1-132.3,151.4-132.3,155.5-130.6Z" fill="#d2c9b8"/>
    <path id="tttt" d="M52.4-128.5c-.7,4.1,1.5,14.8,4.5,21.9,3.2,7.3,3.5,5,.6-3.7-1.4-4.2-2.5-8.5-2.5-9.7,0-3.2,1.9-6.2,3.6-5.6a.955.955,0,0,0,1.4-1c0-2.9-2.1-5.4-4.5-5.4C53.5-132,53-131.4,52.4-128.5Z" fill="#d2c9b8"/>
    <path id="tttt-2" data-name="tttt" d="M174.2-130.8c-1.7,1.7-1.6,5.9.2,5.2.8-.3,1.9.3,2.6,1.5,1.3,2.6-.1,11.4-2.5,16.1-.9,1.7-1.5,3.9-1.3,4.8.5,2.6,4.8-8.2,6.5-16.3,1-5.1,1.1-7.8.4-9.8C179-132.2,176.3-132.9,174.2-130.8Z" fill="#d2c9b8"/>
    <path id="yyyy" d="M58.1-113.5c.1,1.9,1.8,5.1,1.8,3.5a6.91,6.91,0,0,0-.9-3C58.5-113.8,58.1-114.1,58.1-113.5Z" fill="#d2c9b8"/>
    <path id="yyyy-2" data-name="yyyy" d="M173.6-112.5a7.9,7.9,0,0,0-.5,2.8c0,.7.5.1,1-1.2s.8-2.6.5-2.8C174.4-113.9,174-113.4,173.6-112.5Z" fill="#d2c9b8"/>
    <path id="boroda-2" data-name="boroda" d="M63.4-99.2c-.1,9.2-.5,13.7-1.7,16.5-1.4,3.3-1.4,4.2-.2,7.8,2,5.6,1.9,5.8-1,1.9L58-76.4v2.6c0,11.7,4.8,29.5,11.7,43.6,4.9,10,8.1,13.3,18.5,19.2L94-7.8l-1.5-4.4c-1.4-4.2-1.4-4.2.3-1.8,4.6,6.6,7.3,8.8,13,10.4a37.339,37.339,0,0,0,20.7.1c6-1.5,8-3,13.3-10l2.3-3-1.6,3.9c-.8,2.1-1.5,4-1.5,4.2,0,.9,6.7-3,12.8-7.3,5.8-4.1,6.6-5.1,11.7-15.6A150.944,150.944,0,0,0,171-50c2-7.6,4.6-24.8,3.7-25.6-.2-.3-1.4,1-2.6,2.8-2.4,3.8-2.8,2.6-.7-2.3,1.2-2.8,1.2-3.7-.2-6.8-1-2.6-1.5-7.5-1.6-16.8-.1-11.1-.3-13.3-1.6-13.3-1.1,0-2,2.3-3.3,7.7-2.4,10.8-6.5,19-12.1,24.1-2.6,2.4-4.6,4.5-4.4,4.7,2.9,2.4,8.5,3.2,10.6,1.5.7-.5.4,0-.7,1.1-2.9,3.2-7.4,1.9-18.6-5.6-10.5-7.1-16.8-9.6-18.7-7.7-1.5,1.5-6.3,1.5-8.7,0-2.7-1.6-9.4,1.1-19.3,7.9-9.1,6.2-12.8,7.8-16.3,6.9-3.8-1-3-2.1,1.4-2.1,2.1-.1,4.6-.7,5.5-1.4,1.5-1.2,1.3-1.6-1.7-3.7-6.3-4.2-12.5-16.7-14.2-28.7-.5-3.4-1.2-4.7-2.4-4.7C63.7-112,63.5-110.3,63.4-99.2Zm56.1,25.8c.6.8,6.2,3.5,12.5,6s11.7,4.8,11.8,4.9c.2.2-2,1.1-4.9,1.9-6,1.8-11,1-14.7-2.4-3-2.9-13.1-2.9-15.7,0-3.5,3.9-12.2,4.5-18,1.3-1.5-.9-.9-1.4,4.1-3.2,14.1-5.2,18.1-7.2,19.9-10.4,1.7-2.8,1.9-2.9,2.9-1.3C118-75.6,119-74.2,119.5-73.4Z" fill="#d2c9b8"/>
  </g>
</svg>
