<svg version="1.1" id="Слой_1" xmlns="http://www.w3.org/2000/svg" xmlns:xlink="http://www.w3.org/1999/xlink" x="0" y="0" viewBox="0 0 948.3 213.2" xml:space="preserve"><path fill="#1A9BDB" d="M1.4 211.6c0-1.3.5-72.4.6-102.4 0-9.3 3.5-12.7 12.6-12.8 9.8-.1 19.7.3 29.5-.4 11.7-.9 21.3 2.5 29.9 10.7 18.8 17.9 43.3 9.2 56.5-1.5 1.1-.9 1.9-3.2 1.7-4.6-.2-1-2.4-2.2-3.8-2.4-2.8-.4-5.6 0-8.5 0-6.2 0-13.3 1.9-18.2-.5-5.2-2.7-8.1-9.7-12-14.5-2-2.5-2.2-4.5-.2-7.1 3-3.8 5.9-7.7 8.5-11.7 1.8-2.9 4-3.9 7.4-3.8 7.5.2 15 .2 22.5-.1 1.5-.1 3.5-1.4 4.2-2.6.5-.9-.6-3.1-1.7-4.1-1.9-1.8-4.1-3.4-6.5-4.6-13.7-6.9-27.7-11-42.2-2.5-4.4 2.6-8.3 6.1-12.2 9.5-5.6 4.9-11.8 7.6-19.5 7.4-11.7-.3-23.3.1-35 .1-9.3 0-12.9-3.6-13-13C1.9 39.9 2 7.6 2 2.1c2-.1 3.5-.3 5-.3 31.7 0 63.3-.2 95 .2 9.4.1 19 1.2 28.2 3.2 19.7 4.3 36.8 13.4 49 30.2 10.9 15 14.3 32 13.3 50.1-1.2 20-8.6 37.2-24.3 50.1-5.2 4.3-11 7.8-16.8 11.8 14.9 21.7 29.7 43.3 44.7 65.2-1.2.3-1.6.6-2.1.6-19.3 0-38.7.1-58-.1-1.6 0-3.7-1.4-4.7-2.8-9.5-13.6-19.5-27-28-41.3-5.6-9.4-12-12.9-23-12.4-14.6.6-19.6 2-18.9 19.2.5 12.3.1 24.6.1 37-1.1.2-1.7.5-2.3.5-18 0-36 .1-54 0-1.4-.4-2.6-1.2-3.8-1.7zM285 114.9h-48.4c.9 4 2.9 7.1 6.2 9.4 3.3 2.3 7.3 3.5 12.1 3.5 3.3 0 6.3-.5 8.9-1.5 2.6-1 5-2.6 7.2-4.7l9.9 10.7c-6 6.9-14.8 10.4-26.4 10.4-7.2 0-13.6-1.4-19.2-4.2-5.6-2.8-9.8-6.7-12.8-11.7-3-5-4.5-10.7-4.5-17 0-6.3 1.5-11.9 4.5-17 3-5 7.1-9 12.3-11.8 5.2-2.8 11-4.2 17.4-4.2 6.3 0 11.9 1.3 17 4s9.1 6.6 12 11.6c2.9 5 4.3 10.9 4.3 17.5-.1.2-.3 1.9-.5 5zm-43.4-20.6c-2.9 2.4-4.6 5.6-5.2 9.8h31.5c-.6-4-2.4-7.3-5.2-9.7-2.9-2.4-6.3-3.6-10.5-3.6s-7.8 1.1-10.6 3.5zm157.2-10.5c4.7 4.7 7.1 11.8 7.1 21.2v36.6h-18.6v-33.8c0-5.1-1.1-8.9-3.2-11.4s-5.1-3.7-9-3.7c-4.4 0-7.8 1.4-10.4 4.2-2.5 2.8-3.8 7-3.8 12.6v32.1h-18.6v-33.8c0-10.1-4-15.1-12.1-15.1-4.3 0-7.7 1.4-10.2 4.2-2.5 2.8-3.8 7-3.8 12.6v32.1h-18.6v-64h17.7V85c2.4-2.7 5.3-4.8 8.7-6.2s7.2-2.1 11.4-2.1c4.5 0 8.6.9 12.3 2.7 3.6 1.8 6.6 4.4 8.8 7.8 2.6-3.3 5.9-5.9 9.9-7.7 4-1.8 8.4-2.7 13.1-2.7 8.2-.1 14.6 2.3 19.3 7zm36.8 54.6c-5.4-2.8-9.5-6.7-12.6-11.7-3-5-4.5-10.7-4.5-17 0-6.3 1.5-12 4.5-17s7.2-8.9 12.6-11.7c5.4-2.8 11.4-4.2 18.1-4.2 6.7 0 12.8 1.4 18.1 4.2 5.3 2.8 9.5 6.7 12.5 11.7 3 5 4.5 10.7 4.5 17 0 6.3-1.5 12-4.5 17s-7.2 8.9-12.5 11.7c-5.3 2.8-11.3 4.2-18.1 4.2-6.7 0-12.8-1.4-18.1-4.2zm29.8-15.8c3.1-3.2 4.6-7.5 4.6-12.9s-1.5-9.7-4.6-12.9c-3.1-3.2-7-4.8-11.7-4.8s-8.7 1.6-11.8 4.8c-3.1 3.2-4.6 7.5-4.6 12.9s1.5 9.7 4.6 12.9c3.1 3.2 7 4.8 11.8 4.8s8.7-1.6 11.7-4.8zm93.9-38.7c4.9 4.8 7.3 11.8 7.3 21.2v36.6H548v-33.8c0-5.1-1.1-8.9-3.3-11.4-2.2-2.5-5.4-3.7-9.6-3.7-4.7 0-8.4 1.4-11.2 4.3-2.8 2.9-4.2 7.2-4.2 12.9v31.6h-18.6v-64h17.7v7.5c2.5-2.7 5.5-4.8 9.2-6.2 3.6-1.5 7.7-2.2 12-2.2 8 0 14.4 2.4 19.3 7.2zm65.4 54.7c-1.8 1.3-4.1 2.4-6.7 3-2.7.7-5.5 1-8.4 1-7.6 0-13.5-1.9-17.7-5.8-4.2-3.9-6.2-9.6-6.2-17.1V93.4h-9.9V79.1h9.9V63.5h18.6v15.6h15.9v14.3h-15.9v26.1c0 2.7.7 4.8 2.1 6.2 1.4 1.5 3.3 2.2 5.9 2.2 2.9 0 5.4-.8 7.5-2.4l4.9 13.1zm68.6-54.7c4.9 4.8 7.3 11.8 7.3 21.2v36.6H682v-33.8c0-5.1-1.1-8.9-3.3-11.4-2.2-2.5-5.4-3.7-9.6-3.7-4.7 0-8.4 1.4-11.2 4.3-2.8 2.9-4.2 7.2-4.2 12.9v31.6h-18.6v-64h17.7v7.5c2.5-2.7 5.5-4.8 9.2-6.2 3.6-1.5 7.7-2.2 12-2.2 8 0 14.4 2.4 19.3 7.2zm25-18.1c-2.1-2-3.2-4.4-3.2-7.4 0-2.9 1.1-5.4 3.2-7.4s4.9-3 8.3-3c3.4 0 6.2 1 8.3 2.9 2.1 1.9 3.2 4.3 3.2 7.1 0 3.1-1.1 5.7-3.2 7.7s-4.9 3-8.3 3c-3.4 0-6.1-.9-8.3-2.9zm-.9 11.9H736v64h-18.6v-64zm63.3 38.9l-8.9 8.8v16.3h-18.6V53.4h18.6v50l27.1-25.7H821l-26.7 27.1 29 36.9h-22.5l-20.1-25.1zm60.6 21.8c-5.4-2.8-9.5-6.7-12.6-11.7-3-5-4.5-10.7-4.5-17 0-6.3 1.5-12 4.5-17s7.2-8.9 12.6-11.7c5.4-2.8 11.4-4.2 18.1-4.2 6.7 0 12.8 1.4 18.1 4.2 5.3 2.8 9.5 6.7 12.5 11.7 3 5 4.5 10.7 4.5 17 0 6.3-1.5 12-4.5 17s-7.2 8.9-12.5 11.7c-5.3 2.8-11.3 4.2-18.1 4.2-6.7 0-12.8-1.4-18.1-4.2zm29.8-15.8c3.1-3.2 4.6-7.5 4.6-12.9s-1.5-9.7-4.6-12.9c-3.1-3.2-7-4.8-11.7-4.8s-8.7 1.6-11.8 4.8c-3.1 3.2-4.6 7.5-4.6 12.9s1.5 9.7 4.6 12.9c3.1 3.2 7 4.8 11.8 4.8s8.7-1.6 11.7-4.8zm56.1-43.5h16.4v14.3h-15.9v48.3h-18.6V93.4h-9.9V79.1h9.9v-2.9c0-7.3 2.2-13.1 6.5-17.4 4.3-4.3 10.4-6.4 18.3-6.4 2.8 0 5.4.3 7.9.9 2.5.6 4.6 1.4 6.2 2.6l-4.9 13.4c-2.1-1.5-4.6-2.3-7.5-2.3-5.6 0-8.4 3.1-8.4 9.3v2.8z"/></svg>