<?xml version="1.0" standalone="no"?>
<!DOCTYPE svg PUBLIC "-//W3C//DTD SVG 20010904//EN"
 "http://www.w3.org/TR/2001/REC-SVG-20010904/DTD/svg10.dtd">
<svg version="1.0" xmlns="http://www.w3.org/2000/svg"
 width="500.000000pt" height="500.000000pt" viewBox="0 0 500.000000 500.000000"
 preserveAspectRatio="xMidYMid meet">
<metadata>
Created by potrace 1.11, written by Peter Selinger 2001-2013
</metadata>
<g transform="translate(0.000000,500.000000) scale(0.100000,-0.100000)"
fill="#000000" stroke="none">
<path d="M2340 4747 c-3 -3 -40 -8 -84 -11 -43 -3 -81 -8 -85 -10 -3 -2 -31
-7 -61 -11 -30 -4 -105 -20 -167 -36 -647 -168 -1183 -606 -1468 -1201 -93
-195 -159 -396 -190 -583 -3 -16 -7 -43 -10 -60 -28 -163 -27 -494 0 -675 60
-390 240 -792 488 -1090 164 -196 392 -392 592 -508 183 -106 491 -228 650
-257 159 -30 199 -37 255 -43 82 -9 394 -9 480 0 56 6 143 21 255 43 65 13
185 49 290 87 367 134 732 398 970 701 17 21 40 50 51 65 104 132 254 415 317
598 41 118 82 279 97 384 6 41 14 86 17 100 2 14 6 113 8 220 3 197 -7 319
-41 485 -22 108 -19 99 -49 200 -124 424 -396 827 -745 1107 -92 73 -243 178
-256 178 -3 0 -18 8 -32 18 -30 21 -135 75 -224 116 -140 63 -370 130 -538
156 -41 6 -86 14 -100 17 -33 6 -414 15 -420 10z"/>
</g>
</svg>
